<svg version="1.0" xmlns="http://www.w3.org/2000/svg"
 width="4321.000000pt" height="3157.000000pt" viewBox="0 0 4321.000000 3157.000000"
 preserveAspectRatio="xMidYMid meet">
<g transform="translate(0.000000,3157.000000) scale(0.100000,-0.100000)"
fill="#000000" stroke="none">
<path d="M16583 25351 c-65 -126 -284 -553 -488 -950 -203 -396 -372 -721
-375 -721 -3 0 -99 152 -215 337 -507 815 -771 1230 -780 1230 -5 0 -26 -43
-46 -96 -65 -171 -855 -2562 -1241 -3756 -105 -324 -201 -615 -215 -645 -52
-118 -143 -205 -260 -250 -28 -10 -143 -39 -255 -64 -384 -85 -886 -217 -1200
-317 -150 -48 -261 -112 -352 -203 -65 -65 -253 -340 -1216 -1776 -867 -1292
-961 -1430 -1034 -1498 -102 -95 -185 -130 -501 -213 -148 -39 -886 -225
-1640 -414 -1501 -377 -3433 -870 -3441 -877 -2 -3 144 -250 325 -549 227
-375 335 -545 348 -547 25 -4 250 74 399 138 137 59 250 118 382 201 l92 58
26 -23 26 -22 -32 -64 c-95 -188 -256 -407 -482 -658 -66 -73 -118 -138 -115
-145 5 -12 668 -1107 1016 -1677 106 -173 202 -325 214 -338 12 -13 53 -39 92
-57 77 -38 -68 -9 2585 -520 1394 -269 1626 -313 2605 -505 363 -71 790 -152
948 -180 454 -80 654 -129 869 -216 238 -95 1412 -751 3246 -1813 1568 -908
3502 -2014 3509 -2008 2 3 -212 780 -476 1728 -264 948 -608 2188 -766 2754
-157 567 -290 1041 -294 1055 -7 21 -58 -74 -347 -653 -186 -372 -342 -677
-347 -677 -4 0 -776 421 -1715 937 -939 515 -1785 979 -1879 1031 -106 57
-173 100 -173 109 0 15 123 330 725 1858 535 1357 872 2223 1200 3080 116 302
176 432 263 565 151 233 305 375 600 551 204 123 460 290 812 530 173 119 363
248 423 287 59 40 107 76 107 80 0 4 -339 195 -754 425 -415 231 -762 424
-770 430 -16 12 -19 4 971 2780 58 163 111 297 117 297 29 -1 313 -246 502
-435 544 -542 1047 -1240 1616 -2240 168 -295 465 -875 638 -1245 901 -1924
1548 -4060 1775 -5865 15 -115 40 -284 56 -375 40 -231 95 -623 115 -825 9
-93 19 -177 22 -185 3 -8 9 14 14 50 4 36 26 193 47 350 22 157 43 323 46 370
12 151 55 559 81 765 375 2969 1401 5976 2722 7971 306 462 584 819 927 1188
181 195 497 487 511 473 3 -3 111 -302 240 -664 129 -362 375 -1051 546 -1531
171 -480 309 -874 307 -876 -2 -2 -349 -194 -771 -427 -422 -233 -768 -427
-768 -430 0 -3 282 -194 628 -424 676 -450 1033 -692 1125 -763 73 -56 155
-154 201 -242 41 -78 356 -869 1203 -3025 778 -1981 984 -2507 981 -2510 -2
-2 -835 -458 -1853 -1015 -1017 -557 -1868 -1022 -1890 -1035 l-41 -23 -337
680 c-185 375 -339 675 -342 667 -16 -45 -1544 -5543 -1541 -5546 7 -7 342
183 1902 1079 1570 903 3972 2282 4414 2535 272 156 400 222 475 246 90 29
3791 753 5965 1167 465 88 873 170 907 181 81 27 166 83 228 150 33 37 231
357 588 950 295 493 537 900 537 906 0 6 -10 18 -23 26 -34 22 -313 326 -403
437 -94 118 -216 299 -279 415 l-48 88 28 23 c16 13 34 20 39 16 6 -3 36 -23
66 -43 103 -68 256 -148 405 -213 140 -59 454 -167 529 -181 l33 -7 343 569
c188 312 344 571 346 574 2 3 -31 16 -74 28 -112 32 -2722 693 -4092 1036
-646 162 -1202 306 -1234 320 -81 36 -162 93 -221 156 -48 51 -1344 1980
-1855 2759 -261 399 -311 465 -416 550 -134 107 -238 148 -579 224 -88 20
-302 74 -475 121 -173 47 -396 103 -495 125 -192 43 -277 76 -340 131 -80 70
-107 129 -225 492 -504 1547 -1264 3851 -1328 4030 -31 86 -60 157 -63 157 -3
0 -228 -355 -500 -790 -272 -434 -496 -790 -499 -790 -3 0 -224 427 -490 950
-267 522 -488 949 -492 947 -8 -2 -177 -195 -2315 -2644 l-1434 -1643 -1154 0
-1154 0 -1058 1213 c-2417 2771 -2685 3077 -2688 3077 -2 0 -57 -103 -122
-229z m-1758 -2275 c107 -347 154 -514 148 -526 -16 -34 -1116 -1651 -1119
-1647 -2 2 179 607 403 1345 224 738 408 1341 409 1339 1 -1 73 -231 159 -511z
m14080 -869 c218 -720 395 -1310 393 -1312 -3 -3 -1108 1626 -1122 1655 -6 13
36 160 139 496 81 264 152 495 158 514 l10 35 12 -40 c7 -22 191 -629 410
-1348z m-15645 -4731 c166 -31 336 -82 453 -135 l58 -26 -118 -97 c-957 -785
-1860 -1185 -2555 -1128 -160 13 -348 57 -348 81 0 34 267 345 441 514 470
456 975 727 1489 801 126 18 463 12 580 -10z m17142 9 c514 -68 1024 -341
1502 -805 170 -165 436 -476 436 -510 0 -13 -116 -47 -220 -66 -115 -21 -381
-21 -525 1 -480 71 -997 291 -1555 663 -256 171 -729 538 -712 553 16 15 225
90 316 113 86 23 220 48 311 59 81 10 346 5 447 -8z"/>
<path d="M17270 14806 c0 -65 31 -213 71 -331 223 -675 923 -1363 1981 -1948
137 -77 512 -267 524 -267 11 0 -4 267 -20 374 -60 382 -227 757 -468 1054
-409 502 -1092 904 -1873 1102 -226 57 -215 56 -215 16z"/>
<path d="M25725 14796 c-679 -174 -1276 -486 -1689 -885 -363 -351 -583 -763
-667 -1246 -21 -124 -38 -405 -24 -405 15 0 510 257 645 335 997 576 1650
1238 1863 1890 53 160 83 356 56 354 -8 0 -90 -20 -184 -43z"/>
<path d="M20417 7988 c-18 -29 -142 -225 -275 -435 l-242 -381 267 -584 c146
-321 270 -589 276 -596 8 -9 248 -12 1166 -10 l1156 3 96 185 c52 102 175 333
272 514 l178 329 -83 131 c-155 247 -447 696 -518 796 l-71 100 -1094 0 -1094
0 -34 -52z"/>
</g>
</svg>
